<svg width="572" height="572" viewBox="0 0 572 572" fill="none" xmlns="http://www.w3.org/2000/svg">
<rect width="572" height="572" fill="white"/>
<path d="M285.899 339.067C284.649 337.192 283.48 335.479 282.339 333.767C276.875 325.614 271.412 317.46 265.922 309.307C264.563 307.296 263.041 305.366 261.736 303.3C254.424 291.804 246.624 280.634 239.095 269.301C231.539 257.967 223.928 246.661 216.318 235.355C216.019 234.92 215.72 234.458 215.529 233.915C215.801 234.051 216.073 234.159 216.345 234.295C235.643 244.107 254.941 253.918 274.266 263.756C276.305 264.789 278.37 265.795 280.382 266.882C281.632 267.561 282.801 267.561 284.105 266.963C306.04 257.234 328.002 247.504 349.936 237.801C351.377 237.149 352.845 236.524 354.285 235.872C354.53 235.763 354.802 235.681 355.128 235.627C332.187 270.143 308.948 304.442 285.899 339.067Z" fill="#D0D4B1"/>
<path d="M318.869 191.036C318.163 195.569 317.024 199.857 315.56 204.064C309.512 221.708 300.453 237.369 288.709 251.239C286.946 253.302 285.129 255.284 283.312 257.319C283.122 257.537 282.905 257.754 282.688 257.944C281.874 258.812 280.979 258.894 280.003 258.351C278.538 257.537 277.074 256.695 275.609 255.881C253.912 243.639 232.187 231.398 210.49 219.183C210.164 218.993 209.812 218.803 209.486 218.45C209.73 218.45 209.975 218.45 210.246 218.45C215.941 219.048 221.637 219.292 227.332 219.292C234.167 219.292 240.948 218.885 247.728 218.016C264.11 215.953 279.895 211.42 295.029 204.39C302.894 200.726 310.461 196.437 317.757 191.579C318.028 191.389 318.299 191.226 318.57 191.063C318.625 191.036 318.706 191.063 318.814 191.009L318.869 191.036Z" fill="#CBD4B1"/>
<path d="M323.775 153.567C324.047 153.785 324.183 153.867 324.291 153.976C338.642 166.222 350.492 180.782 359.244 198.199C361.935 203.561 364.272 209.112 366.311 214.827C366.365 215.018 366.447 215.208 366.501 215.399C366.719 216.188 366.637 216.433 366.012 216.868C365.577 217.168 365.142 217.413 364.68 217.658C342.393 229.305 320.106 240.98 297.818 252.574C295.291 253.907 292.6 254.914 289.991 256.057C289.828 256.139 289.637 256.166 289.257 256.275C289.665 255.785 289.936 255.459 290.208 255.132C295.861 248.383 301.243 241.416 305.999 233.878C310.946 226.013 315.132 217.739 318.013 208.731C320.405 201.275 322.09 193.6 323.123 185.789C323.965 179.34 324.4 172.835 324.318 166.304C324.264 162.303 323.992 158.303 323.829 154.275C323.829 154.112 323.829 153.949 323.775 153.54V153.567Z" fill="#C4CEB3"/>
<path d="M292.278 129.53C293.556 128.931 294.671 128.413 295.867 128.059C301.822 126.289 307.831 124.9 313.921 123.893C321.534 122.64 329.201 122.041 336.923 122.123C342.388 122.177 347.853 122.477 353.291 123.294C357.369 123.92 361.448 124.683 365.526 125.418C366.206 125.554 366.885 125.772 367.538 126.044C368.653 126.534 369.332 127.46 369.496 128.74C369.577 129.312 369.632 129.911 369.632 130.483C369.632 140.368 369.632 150.253 369.632 160.138C369.632 174.734 369.632 189.303 369.632 203.899C369.632 205.015 369.414 206.159 369.332 207.276C369.305 207.739 369.061 207.929 368.544 207.929C368.408 207.657 368.272 207.33 368.136 207.003C363.596 196.138 357.995 185.953 351.17 176.559C341.409 163.106 329.663 152.023 316.259 142.928C309 138.026 301.414 133.805 293.556 130.129C293.203 129.966 292.876 129.802 292.36 129.557L292.278 129.53Z" fill="#ACC1B4"/>
<path d="M357.344 118.895C319.099 113.773 283.696 122.165 251.325 145.08C251.161 143.826 251.106 142.736 251.352 141.619C255.641 123.718 263.071 107.506 273.616 92.9286C277.003 88.2421 280.664 83.7736 284.57 79.5775C286.291 77.7247 287.329 77.5612 289.433 78.7873C311.478 91.4028 333.55 104.045 355.595 116.661C356.142 116.988 356.661 117.397 357.207 117.778C357.617 118.051 357.644 118.405 357.344 118.895Z" fill="#84A8BB"/>
<path d="M246.637 184.791C246.038 185.009 245.603 185.09 245.14 184.627C241.164 180.595 236.997 176.726 233.266 172.394C221.23 158.5 212.27 142.616 206.415 124.69C206.197 123.981 206.007 123.246 205.898 122.51C205.734 121.393 206.115 120.467 206.905 119.786C207.314 119.431 207.777 119.104 208.267 118.832C230.026 106.381 251.784 93.9307 273.516 81.48C274.415 80.9624 275.341 80.5265 276.566 80.4175C253.119 110.822 242.879 145.504 246.637 184.791Z" fill="#92B2B9"/>
<path d="M202.866 214.064C202.866 213.573 202.866 213.191 202.866 212.809C202.866 187.166 202.866 161.524 202.866 135.881C202.866 134.954 203.003 134.026 203.112 133.126C203.167 132.608 203.221 132.608 203.932 132.389C204.096 132.744 204.26 133.099 204.424 133.48C210.682 147.911 218.826 160.924 229.102 172.381C237.738 182.011 247.522 190.113 258.207 196.933C264.138 200.724 270.287 204.08 276.627 207.053C276.955 207.19 277.256 207.353 277.775 207.626C253.151 215.837 228.255 217.583 202.839 214.064H202.866Z" fill="#ACC1B4"/>
<path d="M312.073 308.742L316.019 302.846C318.088 303.065 320.075 303.229 322.062 303.474C326.145 303.993 330.2 304.511 334.256 305.139C344.409 306.75 354.453 308.933 364.088 312.591C367.681 313.956 371.192 315.593 374.431 317.695C376.418 318.978 378.269 320.452 379.821 322.254C381.127 323.782 382.161 325.447 382.624 327.412C383.25 330.006 382.896 332.489 381.644 334.837C380.419 337.13 378.623 338.931 376.582 340.514C373.288 343.08 369.586 344.909 365.748 346.492C359.978 348.894 353.99 350.586 347.893 352.006C340.516 353.725 333.058 354.954 325.546 355.909C319.422 356.673 313.27 357.247 307.119 357.656C297.075 358.311 287.031 358.584 276.96 358.284C270.89 358.093 264.821 357.82 258.751 357.356C247.074 356.482 235.451 354.981 224.019 352.443C216.67 350.805 209.457 348.812 202.571 345.755C199.74 344.5 197.018 343.08 194.487 341.279C192.582 339.914 190.84 338.385 189.451 336.502C188.09 334.673 187.247 332.626 187.138 330.333C187.029 328.068 187.709 325.993 188.907 324.082C190.105 322.199 191.656 320.67 193.425 319.306C196.801 316.685 200.584 314.802 204.503 313.191C210.383 310.789 216.453 309.07 222.631 307.65C229.681 306.04 236.785 304.839 243.971 303.965C247.455 303.556 250.939 303.201 254.396 302.819C254.967 302.764 255.321 302.901 255.648 303.42C256.737 305.139 257.907 306.804 259.077 308.578C258.832 308.66 258.669 308.742 258.506 308.742C253.47 309.261 248.435 309.698 243.427 310.353C232.321 311.799 221.325 313.928 210.709 317.613C207.253 318.814 203.85 320.179 200.693 322.035C199.223 322.909 197.808 323.919 196.447 324.956C195.739 325.502 195.113 326.239 194.569 326.976C193.099 328.968 193.072 330.797 194.541 332.79C195.195 333.663 196.011 334.482 196.855 335.192C199.087 337.075 201.646 338.413 204.286 339.641C209.485 342.016 214.901 343.735 220.427 345.155C227.34 346.929 234.335 348.321 241.385 349.222C246.883 349.931 252.382 350.586 257.88 351.051C263.024 351.487 268.169 351.76 273.313 351.897C280.118 352.06 286.922 352.088 293.754 352.006C300.232 351.924 306.738 351.515 313.189 350.969C321.273 350.286 329.329 349.304 337.305 347.83C345.906 346.246 354.425 344.227 362.591 341.006C365.231 339.968 367.79 338.767 370.24 337.321C371.818 336.365 373.37 335.328 374.622 333.936C375.193 333.308 375.711 332.599 376.119 331.862C376.827 330.579 376.827 329.214 376.119 327.931C375.711 327.194 375.166 326.484 374.595 325.857C373.206 324.328 371.492 323.209 369.722 322.199C366.266 320.206 362.564 318.732 358.808 317.422C352.547 315.266 346.124 313.71 339.618 312.454C333.902 311.335 328.132 310.489 322.361 309.807C319.531 309.479 316.673 309.234 313.815 308.961C313.298 308.906 312.808 308.851 312.1 308.77L312.073 308.742Z" fill="#D0D4B1"/>
<mask id="path-9-outside-1_21_272" maskUnits="userSpaceOnUse" x="100" y="388.293" width="372" height="79" fill="black">
<rect fill="white" x="100" y="388.293" width="372" height="79"/>
<path d="M101 392.917H107.496V443.669H138.354V449.759H101V392.917Z"/>
<path d="M173.112 417.684C170.459 415.519 167.13 414.436 163.124 414.436C159.118 414.436 155.788 415.519 153.136 417.684C150.537 419.795 148.94 422.692 148.345 426.373H177.903C177.307 422.692 175.71 419.795 173.112 417.684ZM147.452 414.111C151.403 410.267 156.627 408.346 163.124 408.346C169.62 408.346 174.844 410.267 178.796 414.111C182.694 417.955 184.643 423.071 184.643 429.459L184.561 431.001L184.399 432.463H148.345C148.94 436.198 150.537 439.122 153.136 441.233C155.788 443.398 159.118 444.481 163.124 444.481C168.916 444.481 173.139 442.37 175.791 438.147H183.1C181.584 442.045 179.094 445.077 175.629 447.242C172.11 449.462 167.942 450.571 163.124 450.571C156.627 450.571 151.403 448.65 147.452 444.806C143.554 440.962 141.605 435.847 141.605 429.459C141.605 423.071 143.554 417.955 147.452 414.111Z"/>
<path d="M200.1 409.158V421.257C200.641 418.009 201.805 415.329 203.592 413.218C206.244 409.97 210.088 408.346 215.122 408.346C220.211 408.346 224.271 409.97 227.303 413.218C230.28 416.466 231.769 420.797 231.769 426.21V449.759H225.273V427.022C225.273 423.233 224.136 420.174 221.862 417.846C219.535 415.573 216.476 414.436 212.686 414.436C208.897 414.436 205.838 415.573 203.51 417.846C201.237 420.174 200.1 423.233 200.1 427.022V449.759H193.604V409.158H200.1Z"/>
<path d="M257.326 425.804C263.606 426.508 268.126 427.807 270.887 429.702C273.756 431.651 275.191 434.466 275.191 438.147C275.191 446.43 269.236 450.571 257.326 450.571C245.416 450.571 239.461 445.889 239.461 436.523H245.958C245.958 441.829 249.747 444.481 257.326 444.481C264.905 444.481 268.695 442.37 268.695 438.147C268.695 436.253 267.855 434.845 266.177 433.925C264.499 433.004 261.549 432.328 257.326 431.895C251.75 431.299 247.663 430.081 245.064 428.241C242.412 426.346 241.085 423.639 241.085 420.12C241.085 412.271 246.499 408.346 257.326 408.346C262.685 408.346 266.773 409.591 269.588 412.081C272.24 414.409 273.567 417.63 273.567 421.744H267.07C267.07 416.872 263.822 414.436 257.326 414.436C250.83 414.436 247.582 416.331 247.582 420.12C247.582 421.853 248.312 423.125 249.774 423.937C251.236 424.749 253.753 425.371 257.326 425.804Z"/>
<path d="M363.626 391.293V449.759H357.13V408.995L335.205 435.955L313.28 408.995V449.759H306.784V391.293L335.205 426.21L363.626 391.293Z"/>
<path d="M406.287 414.111C408.019 416.222 409.237 418.794 409.941 421.825V409.158H416.437V449.759H409.941V437.092C409.237 440.123 408.019 442.695 406.287 444.806C403.147 448.65 398.681 450.571 392.888 450.571C386.987 450.571 382.25 448.65 378.678 444.806C375.159 440.962 373.399 435.847 373.399 429.459C373.399 423.071 375.159 417.955 378.678 414.111C382.25 410.267 386.987 408.346 392.888 408.346C398.681 408.346 403.147 410.267 406.287 414.111ZM383.956 440.34C386.717 443.101 390.371 444.481 394.918 444.481C399.466 444.481 403.12 443.101 405.881 440.34C408.587 437.633 409.941 434.006 409.941 429.459C409.941 424.911 408.587 421.257 405.881 418.496C403.12 415.789 399.466 414.436 394.918 414.436C390.371 414.436 386.717 415.789 383.956 418.496C381.249 421.257 379.896 424.911 379.896 429.459C379.896 434.006 381.249 437.633 383.956 440.34Z"/>
<path d="M434.273 409.158V466H427.777V409.158H434.273ZM449.296 444.481C453.843 444.481 457.497 443.101 460.258 440.34C462.965 437.633 464.319 434.006 464.319 429.459C464.319 424.911 462.965 421.257 460.258 418.496C457.497 415.789 453.843 414.436 449.296 414.436C444.749 414.436 441.094 415.789 438.333 418.496C435.627 421.257 434.273 424.911 434.273 429.459C434.273 434.006 435.627 437.633 438.333 440.34C441.094 443.101 444.749 444.481 449.296 444.481ZM451.326 408.346C457.227 408.346 461.964 410.267 465.537 414.111C469.055 417.955 470.815 423.071 470.815 429.459C470.815 435.847 469.055 440.962 465.537 444.806C461.964 448.65 457.227 450.571 451.326 450.571C445.534 450.571 441.067 448.65 437.927 444.806C434.95 441.125 433.461 436.009 433.461 429.459C433.461 422.908 434.95 417.792 437.927 414.111C441.067 410.267 445.534 408.346 451.326 408.346Z"/>
</mask>
<path d="M101 392.917H107.496V443.669H138.354V449.759H101V392.917Z" fill="#D0D4B1"/>
<path d="M173.112 417.684C170.459 415.519 167.13 414.436 163.124 414.436C159.118 414.436 155.788 415.519 153.136 417.684C150.537 419.795 148.94 422.692 148.345 426.373H177.903C177.307 422.692 175.71 419.795 173.112 417.684ZM147.452 414.111C151.403 410.267 156.627 408.346 163.124 408.346C169.62 408.346 174.844 410.267 178.796 414.111C182.694 417.955 184.643 423.071 184.643 429.459L184.561 431.001L184.399 432.463H148.345C148.94 436.198 150.537 439.122 153.136 441.233C155.788 443.398 159.118 444.481 163.124 444.481C168.916 444.481 173.139 442.37 175.791 438.147H183.1C181.584 442.045 179.094 445.077 175.629 447.242C172.11 449.462 167.942 450.571 163.124 450.571C156.627 450.571 151.403 448.65 147.452 444.806C143.554 440.962 141.605 435.847 141.605 429.459C141.605 423.071 143.554 417.955 147.452 414.111Z" fill="#D0D4B1"/>
<path d="M200.1 409.158V421.257C200.641 418.009 201.805 415.329 203.592 413.218C206.244 409.97 210.088 408.346 215.122 408.346C220.211 408.346 224.271 409.97 227.303 413.218C230.28 416.466 231.769 420.797 231.769 426.21V449.759H225.273V427.022C225.273 423.233 224.136 420.174 221.862 417.846C219.535 415.573 216.476 414.436 212.686 414.436C208.897 414.436 205.838 415.573 203.51 417.846C201.237 420.174 200.1 423.233 200.1 427.022V449.759H193.604V409.158H200.1Z" fill="#D0D4B1"/>
<path d="M257.326 425.804C263.606 426.508 268.126 427.807 270.887 429.702C273.756 431.651 275.191 434.466 275.191 438.147C275.191 446.43 269.236 450.571 257.326 450.571C245.416 450.571 239.461 445.889 239.461 436.523H245.958C245.958 441.829 249.747 444.481 257.326 444.481C264.905 444.481 268.695 442.37 268.695 438.147C268.695 436.253 267.855 434.845 266.177 433.925C264.499 433.004 261.549 432.328 257.326 431.895C251.75 431.299 247.663 430.081 245.064 428.241C242.412 426.346 241.085 423.639 241.085 420.12C241.085 412.271 246.499 408.346 257.326 408.346C262.685 408.346 266.773 409.591 269.588 412.081C272.24 414.409 273.567 417.63 273.567 421.744H267.07C267.07 416.872 263.822 414.436 257.326 414.436C250.83 414.436 247.582 416.331 247.582 420.12C247.582 421.853 248.312 423.125 249.774 423.937C251.236 424.749 253.753 425.371 257.326 425.804Z" fill="#D0D4B1"/>
<path d="M363.626 391.293V449.759H357.13V408.995L335.205 435.955L313.28 408.995V449.759H306.784V391.293L335.205 426.21L363.626 391.293Z" fill="#D0D4B1"/>
<path d="M406.287 414.111C408.019 416.222 409.237 418.794 409.941 421.825V409.158H416.437V449.759H409.941V437.092C409.237 440.123 408.019 442.695 406.287 444.806C403.147 448.65 398.681 450.571 392.888 450.571C386.987 450.571 382.25 448.65 378.678 444.806C375.159 440.962 373.399 435.847 373.399 429.459C373.399 423.071 375.159 417.955 378.678 414.111C382.25 410.267 386.987 408.346 392.888 408.346C398.681 408.346 403.147 410.267 406.287 414.111ZM383.956 440.34C386.717 443.101 390.371 444.481 394.918 444.481C399.466 444.481 403.12 443.101 405.881 440.34C408.587 437.633 409.941 434.006 409.941 429.459C409.941 424.911 408.587 421.257 405.881 418.496C403.12 415.789 399.466 414.436 394.918 414.436C390.371 414.436 386.717 415.789 383.956 418.496C381.249 421.257 379.896 424.911 379.896 429.459C379.896 434.006 381.249 437.633 383.956 440.34Z" fill="#D0D4B1"/>
<path d="M434.273 409.158V466H427.777V409.158H434.273ZM449.296 444.481C453.843 444.481 457.497 443.101 460.258 440.34C462.965 437.633 464.319 434.006 464.319 429.459C464.319 424.911 462.965 421.257 460.258 418.496C457.497 415.789 453.843 414.436 449.296 414.436C444.749 414.436 441.094 415.789 438.333 418.496C435.627 421.257 434.273 424.911 434.273 429.459C434.273 434.006 435.627 437.633 438.333 440.34C441.094 443.101 444.749 444.481 449.296 444.481ZM451.326 408.346C457.227 408.346 461.964 410.267 465.537 414.111C469.055 417.955 470.815 423.071 470.815 429.459C470.815 435.847 469.055 440.962 465.537 444.806C461.964 448.65 457.227 450.571 451.326 450.571C445.534 450.571 441.067 448.65 437.927 444.806C434.95 441.125 433.461 436.009 433.461 429.459C433.461 422.908 434.95 417.792 437.927 414.111C441.067 410.267 445.534 408.346 451.326 408.346Z" fill="#D0D4B1"/>
<path d="M101 392.917H107.496V443.669H138.354V449.759H101V392.917Z" stroke="#D0D4B1" stroke-width="2" mask="url(#path-9-outside-1_21_272)"/>
<path d="M173.112 417.684C170.459 415.519 167.13 414.436 163.124 414.436C159.118 414.436 155.788 415.519 153.136 417.684C150.537 419.795 148.94 422.692 148.345 426.373H177.903C177.307 422.692 175.71 419.795 173.112 417.684ZM147.452 414.111C151.403 410.267 156.627 408.346 163.124 408.346C169.62 408.346 174.844 410.267 178.796 414.111C182.694 417.955 184.643 423.071 184.643 429.459L184.561 431.001L184.399 432.463H148.345C148.94 436.198 150.537 439.122 153.136 441.233C155.788 443.398 159.118 444.481 163.124 444.481C168.916 444.481 173.139 442.37 175.791 438.147H183.1C181.584 442.045 179.094 445.077 175.629 447.242C172.11 449.462 167.942 450.571 163.124 450.571C156.627 450.571 151.403 448.65 147.452 444.806C143.554 440.962 141.605 435.847 141.605 429.459C141.605 423.071 143.554 417.955 147.452 414.111Z" stroke="#D0D4B1" stroke-width="2" mask="url(#path-9-outside-1_21_272)"/>
<path d="M200.1 409.158V421.257C200.641 418.009 201.805 415.329 203.592 413.218C206.244 409.97 210.088 408.346 215.122 408.346C220.211 408.346 224.271 409.97 227.303 413.218C230.28 416.466 231.769 420.797 231.769 426.21V449.759H225.273V427.022C225.273 423.233 224.136 420.174 221.862 417.846C219.535 415.573 216.476 414.436 212.686 414.436C208.897 414.436 205.838 415.573 203.51 417.846C201.237 420.174 200.1 423.233 200.1 427.022V449.759H193.604V409.158H200.1Z" stroke="#D0D4B1" stroke-width="2" mask="url(#path-9-outside-1_21_272)"/>
<path d="M257.326 425.804C263.606 426.508 268.126 427.807 270.887 429.702C273.756 431.651 275.191 434.466 275.191 438.147C275.191 446.43 269.236 450.571 257.326 450.571C245.416 450.571 239.461 445.889 239.461 436.523H245.958C245.958 441.829 249.747 444.481 257.326 444.481C264.905 444.481 268.695 442.37 268.695 438.147C268.695 436.253 267.855 434.845 266.177 433.925C264.499 433.004 261.549 432.328 257.326 431.895C251.75 431.299 247.663 430.081 245.064 428.241C242.412 426.346 241.085 423.639 241.085 420.12C241.085 412.271 246.499 408.346 257.326 408.346C262.685 408.346 266.773 409.591 269.588 412.081C272.24 414.409 273.567 417.63 273.567 421.744H267.07C267.07 416.872 263.822 414.436 257.326 414.436C250.83 414.436 247.582 416.331 247.582 420.12C247.582 421.853 248.312 423.125 249.774 423.937C251.236 424.749 253.753 425.371 257.326 425.804Z" stroke="#D0D4B1" stroke-width="2" mask="url(#path-9-outside-1_21_272)"/>
<path d="M363.626 391.293V449.759H357.13V408.995L335.205 435.955L313.28 408.995V449.759H306.784V391.293L335.205 426.21L363.626 391.293Z" stroke="#D0D4B1" stroke-width="2" mask="url(#path-9-outside-1_21_272)"/>
<path d="M406.287 414.111C408.019 416.222 409.237 418.794 409.941 421.825V409.158H416.437V449.759H409.941V437.092C409.237 440.123 408.019 442.695 406.287 444.806C403.147 448.65 398.681 450.571 392.888 450.571C386.987 450.571 382.25 448.65 378.678 444.806C375.159 440.962 373.399 435.847 373.399 429.459C373.399 423.071 375.159 417.955 378.678 414.111C382.25 410.267 386.987 408.346 392.888 408.346C398.681 408.346 403.147 410.267 406.287 414.111ZM383.956 440.34C386.717 443.101 390.371 444.481 394.918 444.481C399.466 444.481 403.12 443.101 405.881 440.34C408.587 437.633 409.941 434.006 409.941 429.459C409.941 424.911 408.587 421.257 405.881 418.496C403.12 415.789 399.466 414.436 394.918 414.436C390.371 414.436 386.717 415.789 383.956 418.496C381.249 421.257 379.896 424.911 379.896 429.459C379.896 434.006 381.249 437.633 383.956 440.34Z" stroke="#D0D4B1" stroke-width="2" mask="url(#path-9-outside-1_21_272)"/>
<path d="M434.273 409.158V466H427.777V409.158H434.273ZM449.296 444.481C453.843 444.481 457.497 443.101 460.258 440.34C462.965 437.633 464.319 434.006 464.319 429.459C464.319 424.911 462.965 421.257 460.258 418.496C457.497 415.789 453.843 414.436 449.296 414.436C444.749 414.436 441.094 415.789 438.333 418.496C435.627 421.257 434.273 424.911 434.273 429.459C434.273 434.006 435.627 437.633 438.333 440.34C441.094 443.101 444.749 444.481 449.296 444.481ZM451.326 408.346C457.227 408.346 461.964 410.267 465.537 414.111C469.055 417.955 470.815 423.071 470.815 429.459C470.815 435.847 469.055 440.962 465.537 444.806C461.964 448.65 457.227 450.571 451.326 450.571C445.534 450.571 441.067 448.65 437.927 444.806C434.95 441.125 433.461 436.009 433.461 429.459C433.461 422.908 434.95 417.792 437.927 414.111C441.067 410.267 445.534 408.346 451.326 408.346Z" stroke="#D0D4B1" stroke-width="2" mask="url(#path-9-outside-1_21_272)"/>
</svg>
