<svg width="44" height="44" viewBox="0 0 44 44" fill="none" xmlns="http://www.w3.org/2000/svg">
<path d="M20.2083 7.47452C20.8594 6.1554 22.7405 6.1554 23.3916 7.47452L26.8721 14.5256C27.1304 15.049 27.6295 15.4119 28.207 15.4963L35.9932 16.6344C37.4486 16.8471 38.0286 18.636 36.975 19.6623L31.3437 25.1471C30.9251 25.5549 30.734 26.1427 30.8328 26.7187L32.1614 34.4652C32.4101 35.9153 30.8879 37.0211 29.5857 36.3362L22.6261 32.6762C22.1089 32.4043 21.491 32.4043 20.9738 32.6762L14.0141 36.3362C12.7119 37.0211 11.1898 35.9153 11.4385 34.4652L12.7671 26.7187C12.8659 26.1427 12.6748 25.5549 12.2561 25.1471L6.62488 19.6623C5.57125 18.636 6.1513 16.8471 7.60664 16.6344L15.3928 15.4963C15.9703 15.4119 16.4694 15.049 16.7278 14.5256L20.2083 7.47452Z" fill="#EBEBEB"/>
</svg>
